<svg width="283" height="40" viewBox="0 0 283 40" fill="none" xmlns="http://www.w3.org/2000/svg">
<path d="M26.7691 2.00012H13.2306C12.1085 2.00012 11.0324 2.43113 10.239 3.19832C9.44559 3.96552 8.99985 5.00605 8.99985 6.09103V33.9092C8.99985 34.9942 9.44559 36.0347 10.239 36.8019C11.0324 37.5691 12.1085 38.0001 13.2306 38.0001H26.7691C27.8911 38.0001 28.9673 37.5691 29.7607 36.8019C30.5541 36.0347 30.9998 34.9942 30.9998 33.9092V6.09103C30.9998 5.00605 30.5541 3.96552 29.7607 3.19832C28.9673 2.43113 27.8911 2.00012 26.7691 2.00012ZM19.9998 36.3638C18.5952 36.3638 17.4614 35.2674 17.4614 33.9092C17.4614 32.551 18.5952 31.4547 19.9998 31.4547C21.4045 31.4547 22.5383 32.551 22.5383 33.9092C22.5383 35.2674 21.4045 36.3638 19.9998 36.3638ZM27.6152 29.8183H12.3845V6.90921H27.6152V29.8183Z" fill="#F7FBFB"/>
<path d="M54.3276 25.688V15.512H55.8396V25.688H54.3276ZM49.8636 21.32V19.904H60.3036V21.32H49.8636ZM67.7835 29.144C66.5675 29.144 65.4155 28.952 64.3275 28.568C63.2555 28.168 62.3915 27.64 61.7355 26.984L62.5755 25.616C63.1195 26.176 63.8475 26.64 64.7595 27.008C65.6875 27.376 66.6955 27.56 67.7835 27.56C69.1755 27.56 70.2395 27.256 70.9755 26.648C71.7275 26.04 72.1035 25.224 72.1035 24.2C72.1035 23.176 71.7355 22.36 70.9995 21.752C70.2795 21.144 69.1355 20.84 67.5675 20.84H66.3675V19.568L71.5515 13.064L71.7915 13.736H62.4315V12.2H73.2315V13.424L68.0475 19.928L67.2075 19.376H67.8555C69.8715 19.376 71.3755 19.824 72.3675 20.72C73.3755 21.616 73.8795 22.768 73.8795 24.176C73.8795 25.12 73.6555 25.968 73.2075 26.72C72.7595 27.472 72.0795 28.064 71.1675 28.496C70.2715 28.928 69.1435 29.144 67.7835 29.144ZM82.6984 29.144C81.3544 29.144 80.1944 28.952 79.2184 28.568C78.2584 28.184 77.5144 27.632 76.9864 26.912C76.4744 26.176 76.2184 25.312 76.2184 24.32C76.2184 23.36 76.4664 22.544 76.9624 21.872C77.4744 21.184 78.2104 20.656 79.1704 20.288C80.1464 19.92 81.3224 19.736 82.6984 19.736C84.0584 19.736 85.2264 19.92 86.2024 20.288C87.1784 20.656 87.9224 21.184 88.4344 21.872C88.9624 22.544 89.2264 23.36 89.2264 24.32C89.2264 25.312 88.9624 26.176 88.4344 26.912C87.9064 27.632 87.1544 28.184 86.1784 28.568C85.2024 28.952 84.0424 29.144 82.6984 29.144ZM82.6984 27.68C84.1864 27.68 85.3464 27.376 86.1784 26.768C87.0264 26.16 87.4504 25.336 87.4504 24.296C87.4504 23.256 87.0264 22.44 86.1784 21.848C85.3464 21.24 84.1864 20.936 82.6984 20.936C81.2104 20.936 80.0504 21.24 79.2184 21.848C78.3864 22.44 77.9704 23.256 77.9704 24.296C77.9704 25.336 78.3864 26.16 79.2184 26.768C80.0504 27.376 81.2104 27.68 82.6984 27.68ZM82.6984 20.72C81.4504 20.72 80.3864 20.552 79.5064 20.216C78.6424 19.88 77.9784 19.4 77.5144 18.776C77.0504 18.136 76.8184 17.376 76.8184 16.496C76.8184 15.568 77.0584 14.776 77.5384 14.12C78.0344 13.448 78.7224 12.936 79.6024 12.584C80.4824 12.232 81.5144 12.056 82.6984 12.056C83.8824 12.056 84.9144 12.232 85.7944 12.584C86.6904 12.936 87.3864 13.448 87.8824 14.12C88.3784 14.776 88.6264 15.568 88.6264 16.496C88.6264 17.376 88.3944 18.136 87.9304 18.776C87.4664 19.4 86.7864 19.88 85.8904 20.216C85.0104 20.552 83.9464 20.72 82.6984 20.72ZM82.6984 19.568C84.0104 19.568 85.0344 19.296 85.7704 18.752C86.5064 18.208 86.8744 17.48 86.8744 16.568C86.8744 15.608 86.4904 14.864 85.7224 14.336C84.9704 13.792 83.9624 13.52 82.6984 13.52C81.4344 13.52 80.4264 13.792 79.6744 14.336C78.9224 14.864 78.5464 15.6 78.5464 16.544C78.5464 17.472 78.9064 18.208 79.6264 18.752C80.3624 19.296 81.3864 19.568 82.6984 19.568ZM101.932 33.656C101.052 32.2 100.364 30.52 99.8683 28.616C99.3883 26.696 99.1483 24.632 99.1483 22.424C99.1483 20.216 99.3883 18.152 99.8683 16.232C100.364 14.296 101.052 12.616 101.932 11.192H103.564C102.62 12.84 101.924 14.592 101.476 16.448C101.044 18.288 100.828 20.28 100.828 22.424C100.828 24.568 101.044 26.568 101.476 28.424C101.924 30.264 102.62 32.008 103.564 33.656H101.932ZM112.495 29.144C111.199 29.144 110.047 28.808 109.039 28.136C108.031 27.448 107.239 26.472 106.663 25.208C106.087 23.928 105.799 22.392 105.799 20.6C105.799 18.808 106.087 17.28 106.663 16.016C107.239 14.736 108.031 13.76 109.039 13.088C110.047 12.4 111.199 12.056 112.495 12.056C113.791 12.056 114.943 12.4 115.951 13.088C116.959 13.76 117.751 14.736 118.327 16.016C118.919 17.28 119.215 18.808 119.215 20.6C119.215 22.392 118.919 23.928 118.327 25.208C117.751 26.472 116.959 27.448 115.951 28.136C114.943 28.808 113.791 29.144 112.495 29.144ZM112.495 27.56C113.487 27.56 114.351 27.296 115.087 26.768C115.823 26.224 116.399 25.44 116.815 24.416C117.231 23.376 117.439 22.104 117.439 20.6C117.439 19.096 117.231 17.832 116.815 16.808C116.399 15.768 115.823 14.984 115.087 14.456C114.351 13.912 113.487 13.64 112.495 13.64C111.535 13.64 110.679 13.912 109.927 14.456C109.175 14.984 108.591 15.768 108.175 16.808C107.759 17.832 107.551 19.096 107.551 20.6C107.551 22.104 107.759 23.376 108.175 24.416C108.591 25.44 109.175 26.224 109.927 26.768C110.679 27.296 111.535 27.56 112.495 27.56ZM126.921 12.056C128.409 12.056 129.665 12.392 130.689 13.064C131.713 13.72 132.489 14.672 133.017 15.92C133.545 17.168 133.809 18.68 133.809 20.456C133.809 22.344 133.481 23.936 132.825 25.232C132.185 26.528 131.289 27.504 130.137 28.16C128.985 28.816 127.649 29.144 126.129 29.144C125.377 29.144 124.657 29.072 123.969 28.928C123.297 28.784 122.689 28.552 122.145 28.232L122.841 26.84C123.273 27.128 123.769 27.336 124.329 27.464C124.905 27.576 125.497 27.632 126.105 27.632C127.913 27.632 129.353 27.056 130.425 25.904C131.513 24.752 132.057 23.032 132.057 20.744C132.057 20.376 132.033 19.936 131.985 19.424C131.953 18.912 131.865 18.4 131.721 17.888L132.321 18.344C132.161 19.176 131.817 19.888 131.289 20.48C130.777 21.056 130.137 21.496 129.369 21.8C128.617 22.104 127.777 22.256 126.849 22.256C125.745 22.256 124.761 22.048 123.897 21.632C123.049 21.216 122.385 20.632 121.905 19.88C121.425 19.128 121.185 18.24 121.185 17.216C121.185 16.16 121.433 15.248 121.929 14.48C122.425 13.712 123.105 13.12 123.969 12.704C124.849 12.272 125.833 12.056 126.921 12.056ZM126.993 13.52C126.193 13.52 125.481 13.672 124.857 13.976C124.249 14.264 123.769 14.68 123.417 15.224C123.065 15.768 122.889 16.416 122.889 17.168C122.889 18.272 123.265 19.152 124.017 19.808C124.785 20.464 125.817 20.792 127.113 20.792C127.977 20.792 128.729 20.632 129.369 20.312C130.025 19.992 130.529 19.552 130.881 18.992C131.249 18.432 131.433 17.808 131.433 17.12C131.433 16.496 131.265 15.912 130.929 15.368C130.593 14.824 130.097 14.384 129.441 14.048C128.785 13.696 127.969 13.52 126.993 13.52ZM139.079 29L146.327 12.968L146.855 13.736H136.463L137.351 12.896V16.88H135.647V12.2H147.983V13.424L140.951 29H139.079ZM151.604 33.656H149.972C150.932 32.008 151.628 30.264 152.06 28.424C152.508 26.568 152.732 24.568 152.732 22.424C152.732 20.28 152.508 18.288 152.06 16.448C151.628 14.592 150.932 12.84 149.972 11.192H151.604C152.516 12.616 153.212 14.296 153.692 16.232C154.172 18.152 154.412 20.216 154.412 22.424C154.412 24.632 154.172 26.696 153.692 28.616C153.212 30.52 152.516 32.2 151.604 33.656ZM167.367 29V12.92L168.135 13.736H163.407V12.2H169.095V29H167.367ZM179.999 29.144C178.511 29.144 177.255 28.816 176.231 28.16C175.207 27.488 174.431 26.528 173.903 25.28C173.375 24.016 173.111 22.504 173.111 20.744C173.111 18.84 173.431 17.248 174.071 15.968C174.727 14.672 175.631 13.696 176.783 13.04C177.935 12.384 179.271 12.056 180.791 12.056C181.543 12.056 182.263 12.128 182.951 12.272C183.639 12.416 184.247 12.648 184.775 12.968L184.079 14.36C183.647 14.072 183.151 13.872 182.591 13.76C182.031 13.632 181.439 13.568 180.815 13.568C179.007 13.568 177.559 14.144 176.471 15.296C175.399 16.448 174.863 18.168 174.863 20.456C174.863 20.808 174.879 21.248 174.911 21.776C174.959 22.288 175.055 22.8 175.199 23.312L174.599 22.856C174.775 22.024 175.119 21.32 175.631 20.744C176.143 20.152 176.783 19.704 177.551 19.4C178.319 19.096 179.159 18.944 180.071 18.944C181.191 18.944 182.175 19.152 183.023 19.568C183.871 19.984 184.535 20.568 185.015 21.32C185.495 22.072 185.735 22.96 185.735 23.984C185.735 25.024 185.487 25.936 184.991 26.72C184.495 27.488 183.807 28.088 182.927 28.52C182.063 28.936 181.087 29.144 179.999 29.144ZM179.927 27.68C180.727 27.68 181.431 27.536 182.039 27.248C182.663 26.944 183.151 26.52 183.503 25.976C183.855 25.416 184.031 24.768 184.031 24.032C184.031 22.928 183.647 22.048 182.879 21.392C182.127 20.736 181.103 20.408 179.807 20.408C178.943 20.408 178.191 20.568 177.551 20.888C176.911 21.208 176.407 21.648 176.039 22.208C175.671 22.752 175.487 23.376 175.487 24.08C175.487 24.688 175.655 25.272 175.991 25.832C176.327 26.376 176.823 26.824 177.479 27.176C178.151 27.512 178.967 27.68 179.927 27.68ZM187.424 29V27.776L194.408 20.936C195.048 20.312 195.528 19.768 195.848 19.304C196.168 18.824 196.384 18.376 196.496 17.96C196.608 17.544 196.664 17.152 196.664 16.784C196.664 15.808 196.328 15.04 195.656 14.48C195 13.92 194.024 13.64 192.728 13.64C191.736 13.64 190.856 13.792 190.088 14.096C189.336 14.4 188.688 14.872 188.144 15.512L186.92 14.456C187.576 13.688 188.416 13.096 189.44 12.68C190.464 12.264 191.608 12.056 192.872 12.056C194.008 12.056 194.992 12.24 195.824 12.608C196.656 12.96 197.296 13.48 197.744 14.168C198.208 14.856 198.44 15.664 198.44 16.592C198.44 17.136 198.36 17.672 198.2 18.2C198.056 18.728 197.784 19.288 197.384 19.88C197 20.456 196.432 21.112 195.68 21.848L189.272 28.136L188.792 27.464H199.208V29H187.424ZM207.85 23.24V21.752H214.138V23.24H207.85ZM223.898 29.144C222.41 29.144 221.154 28.816 220.13 28.16C219.106 27.488 218.33 26.528 217.802 25.28C217.274 24.016 217.01 22.504 217.01 20.744C217.01 18.84 217.33 17.248 217.97 15.968C218.626 14.672 219.53 13.696 220.682 13.04C221.834 12.384 223.17 12.056 224.69 12.056C225.442 12.056 226.162 12.128 226.85 12.272C227.538 12.416 228.146 12.648 228.674 12.968L227.978 14.36C227.546 14.072 227.05 13.872 226.49 13.76C225.93 13.632 225.338 13.568 224.714 13.568C222.906 13.568 221.458 14.144 220.37 15.296C219.298 16.448 218.762 18.168 218.762 20.456C218.762 20.808 218.778 21.248 218.81 21.776C218.858 22.288 218.954 22.8 219.098 23.312L218.498 22.856C218.674 22.024 219.018 21.32 219.53 20.744C220.042 20.152 220.682 19.704 221.45 19.4C222.218 19.096 223.058 18.944 223.97 18.944C225.09 18.944 226.074 19.152 226.922 19.568C227.77 19.984 228.434 20.568 228.914 21.32C229.394 22.072 229.634 22.96 229.634 23.984C229.634 25.024 229.386 25.936 228.89 26.72C228.394 27.488 227.706 28.088 226.826 28.52C225.962 28.936 224.986 29.144 223.898 29.144ZM223.826 27.68C224.626 27.68 225.33 27.536 225.938 27.248C226.562 26.944 227.05 26.52 227.402 25.976C227.754 25.416 227.93 24.768 227.93 24.032C227.93 22.928 227.546 22.048 226.778 21.392C226.026 20.736 225.002 20.408 223.706 20.408C222.842 20.408 222.09 20.568 221.45 20.888C220.81 21.208 220.306 21.648 219.938 22.208C219.57 22.752 219.386 23.376 219.386 24.08C219.386 24.688 219.554 25.272 219.89 25.832C220.226 26.376 220.722 26.824 221.378 27.176C222.05 27.512 222.866 27.68 223.826 27.68ZM234.399 29L241.647 12.968L242.175 13.736H231.783L232.671 12.896V16.88H230.967V12.2H243.303V13.424L236.271 29H234.399ZM244.577 23.24V21.752H250.865V23.24H244.577ZM258.781 12.056C260.269 12.056 261.525 12.392 262.549 13.064C263.573 13.72 264.349 14.672 264.877 15.92C265.405 17.168 265.669 18.68 265.669 20.456C265.669 22.344 265.341 23.936 264.685 25.232C264.045 26.528 263.149 27.504 261.997 28.16C260.845 28.816 259.509 29.144 257.989 29.144C257.237 29.144 256.517 29.072 255.829 28.928C255.157 28.784 254.549 28.552 254.005 28.232L254.701 26.84C255.133 27.128 255.629 27.336 256.189 27.464C256.765 27.576 257.357 27.632 257.965 27.632C259.773 27.632 261.213 27.056 262.285 25.904C263.373 24.752 263.917 23.032 263.917 20.744C263.917 20.376 263.893 19.936 263.845 19.424C263.813 18.912 263.725 18.4 263.581 17.888L264.181 18.344C264.021 19.176 263.677 19.888 263.149 20.48C262.637 21.056 261.997 21.496 261.229 21.8C260.477 22.104 259.637 22.256 258.709 22.256C257.605 22.256 256.621 22.048 255.757 21.632C254.909 21.216 254.245 20.632 253.765 19.88C253.285 19.128 253.045 18.24 253.045 17.216C253.045 16.16 253.293 15.248 253.789 14.48C254.285 13.712 254.965 13.12 255.829 12.704C256.709 12.272 257.693 12.056 258.781 12.056ZM258.853 13.52C258.053 13.52 257.341 13.672 256.717 13.976C256.109 14.264 255.629 14.68 255.277 15.224C254.925 15.768 254.749 16.416 254.749 17.168C254.749 18.272 255.125 19.152 255.877 19.808C256.645 20.464 257.677 20.792 258.973 20.792C259.837 20.792 260.589 20.632 261.229 20.312C261.885 19.992 262.389 19.552 262.741 18.992C263.109 18.432 263.293 17.808 263.293 17.12C263.293 16.496 263.125 15.912 262.789 15.368C262.453 14.824 261.957 14.384 261.301 14.048C260.645 13.696 259.829 13.52 258.853 13.52ZM274.87 29.144C273.574 29.144 272.422 28.808 271.414 28.136C270.406 27.448 269.614 26.472 269.038 25.208C268.462 23.928 268.174 22.392 268.174 20.6C268.174 18.808 268.462 17.28 269.038 16.016C269.614 14.736 270.406 13.76 271.414 13.088C272.422 12.4 273.574 12.056 274.87 12.056C276.166 12.056 277.318 12.4 278.326 13.088C279.334 13.76 280.126 14.736 280.702 16.016C281.294 17.28 281.59 18.808 281.59 20.6C281.59 22.392 281.294 23.928 280.702 25.208C280.126 26.472 279.334 27.448 278.326 28.136C277.318 28.808 276.166 29.144 274.87 29.144ZM274.87 27.56C275.862 27.56 276.726 27.296 277.462 26.768C278.198 26.224 278.774 25.44 279.19 24.416C279.606 23.376 279.814 22.104 279.814 20.6C279.814 19.096 279.606 17.832 279.19 16.808C278.774 15.768 278.198 14.984 277.462 14.456C276.726 13.912 275.862 13.64 274.87 13.64C273.91 13.64 273.054 13.912 272.302 14.456C271.55 14.984 270.966 15.768 270.55 16.808C270.134 17.832 269.926 19.096 269.926 20.6C269.926 22.104 270.134 23.376 270.55 24.416C270.966 25.44 271.55 26.224 272.302 26.768C273.054 27.296 273.91 27.56 274.87 27.56Z" fill="#F7FBFB"/>
</svg>
