<svg width="348" height="40" viewBox="0 0 348 40" fill="none" xmlns="http://www.w3.org/2000/svg">
<path d="M19.9998 2.99988C13.3656 2.99988 7.99985 8.32088 7.99985 14.8999C7.99985 23.8249 19.9998 36.9999 19.9998 36.9999C19.9998 36.9999 31.9998 23.8249 31.9998 14.8999C31.9998 8.32088 26.6341 2.99988 19.9998 2.99988ZM19.9998 19.1499C18.8632 19.1499 17.7731 18.7021 16.9694 17.9051C16.1657 17.1081 15.7141 16.027 15.7141 14.8999C15.7141 13.7727 16.1657 12.6917 16.9694 11.8947C17.7731 11.0976 18.8632 10.6499 19.9998 10.6499C21.1365 10.6499 22.2266 11.0976 23.0303 11.8947C23.834 12.6917 24.2856 13.7727 24.2856 14.8999C24.2856 16.027 23.834 17.1081 23.0303 17.9051C22.2266 18.7021 21.1365 19.1499 19.9998 19.1499Z" fill="#F7FBFB"/>
<path d="M50.9587 29V12.2H52.7347V27.464H62.1427V29H50.9587ZM67.034 29L61.442 16.4H63.218L68.354 28.088H67.514L72.722 16.4H74.402L68.786 29H67.034ZM76.8018 29V16.4H78.5058V29H76.8018ZM77.6658 13.616C77.3138 13.616 77.0178 13.496 76.7778 13.256C76.5378 13.016 76.4178 12.728 76.4178 12.392C76.4178 12.056 76.5378 11.776 76.7778 11.552C77.0178 11.312 77.3138 11.192 77.6658 11.192C78.0178 11.192 78.3138 11.304 78.5538 11.528C78.7938 11.752 78.9138 12.032 78.9138 12.368C78.9138 12.72 78.7938 13.016 78.5538 13.256C78.3298 13.496 78.0338 13.616 77.6658 13.616ZM86.4871 29L80.8951 16.4H82.6711L87.8071 28.088H86.9671L92.1751 16.4H93.8551L88.2391 29H86.4871ZM94.4026 32.504L95.4586 28.064L95.6506 29.096C95.2826 29.096 94.9706 28.976 94.7146 28.736C94.4746 28.496 94.3546 28.184 94.3546 27.8C94.3546 27.416 94.4746 27.104 94.7146 26.864C94.9706 26.624 95.2746 26.504 95.6266 26.504C95.9946 26.504 96.2906 26.632 96.5146 26.888C96.7546 27.144 96.8746 27.448 96.8746 27.8C96.8746 27.928 96.8666 28.056 96.8506 28.184C96.8346 28.312 96.8026 28.456 96.7546 28.616C96.7066 28.776 96.6426 28.968 96.5626 29.192L95.5546 32.504H94.4026ZM110.186 29.12C109.146 29.12 108.162 28.976 107.234 28.688C106.306 28.384 105.578 28.008 105.05 27.56L105.818 26.216C106.33 26.6 106.986 26.936 107.786 27.224C108.586 27.496 109.426 27.632 110.306 27.632C111.506 27.632 112.37 27.448 112.898 27.08C113.426 26.696 113.69 26.192 113.69 25.568C113.69 25.104 113.538 24.744 113.234 24.488C112.946 24.216 112.562 24.016 112.082 23.888C111.602 23.744 111.066 23.624 110.474 23.528C109.882 23.432 109.29 23.32 108.698 23.192C108.122 23.064 107.594 22.88 107.114 22.64C106.634 22.384 106.242 22.04 105.938 21.608C105.65 21.176 105.506 20.6 105.506 19.88C105.506 19.192 105.698 18.576 106.082 18.032C106.466 17.488 107.026 17.064 107.762 16.76C108.514 16.44 109.426 16.28 110.498 16.28C111.314 16.28 112.13 16.392 112.946 16.616C113.762 16.824 114.434 17.104 114.962 17.456L114.218 18.824C113.658 18.44 113.058 18.168 112.418 18.008C111.778 17.832 111.138 17.744 110.498 17.744C109.362 17.744 108.522 17.944 107.978 18.344C107.45 18.728 107.186 19.224 107.186 19.832C107.186 20.312 107.33 20.688 107.618 20.96C107.922 21.232 108.314 21.448 108.794 21.608C109.29 21.752 109.826 21.872 110.402 21.968C110.994 22.064 111.578 22.184 112.154 22.328C112.746 22.456 113.282 22.64 113.762 22.88C114.258 23.104 114.65 23.432 114.938 23.864C115.242 24.28 115.394 24.832 115.394 25.52C115.394 26.256 115.186 26.896 114.77 27.44C114.37 27.968 113.778 28.384 112.994 28.688C112.226 28.976 111.29 29.12 110.186 29.12ZM122.505 29.12C121.321 29.12 120.409 28.8 119.769 28.16C119.129 27.52 118.809 26.616 118.809 25.448V13.616H120.513V25.352C120.513 26.088 120.697 26.656 121.065 27.056C121.449 27.456 121.993 27.656 122.697 27.656C123.449 27.656 124.073 27.44 124.569 27.008L125.169 28.232C124.833 28.536 124.425 28.76 123.945 28.904C123.481 29.048 123.001 29.12 122.505 29.12ZM116.553 17.816V16.4H124.353V17.816H116.553ZM128.673 29.12C128.321 29.12 128.017 28.992 127.761 28.736C127.521 28.48 127.401 28.168 127.401 27.8C127.401 27.416 127.521 27.104 127.761 26.864C128.017 26.624 128.321 26.504 128.673 26.504C129.025 26.504 129.321 26.624 129.561 26.864C129.817 27.104 129.945 27.416 129.945 27.8C129.945 28.168 129.817 28.48 129.561 28.736C129.321 28.992 129.025 29.12 128.673 29.12ZM140.232 29V12.2H147.072C148.864 12.2 150.432 12.56 151.776 13.28C153.136 13.984 154.192 14.968 154.944 16.232C155.696 17.496 156.072 18.952 156.072 20.6C156.072 22.248 155.696 23.704 154.944 24.968C154.192 26.232 153.136 27.224 151.776 27.944C150.432 28.648 148.864 29 147.072 29H140.232ZM142.008 27.464H146.976C148.464 27.464 149.752 27.176 150.84 26.6C151.944 26.008 152.8 25.2 153.408 24.176C154.016 23.136 154.32 21.944 154.32 20.6C154.32 19.24 154.016 18.048 153.408 17.024C152.8 16 151.944 15.2 150.84 14.624C149.752 14.032 148.464 13.736 146.976 13.736H142.008V27.464ZM164.836 29.12C163.62 29.12 162.524 28.848 161.548 28.304C160.588 27.744 159.828 26.984 159.268 26.024C158.708 25.048 158.428 23.936 158.428 22.688C158.428 21.424 158.708 20.312 159.268 19.352C159.828 18.392 160.588 17.64 161.548 17.096C162.508 16.552 163.604 16.28 164.836 16.28C166.084 16.28 167.188 16.552 168.148 17.096C169.124 17.64 169.884 18.392 170.428 19.352C170.988 20.312 171.268 21.424 171.268 22.688C171.268 23.936 170.988 25.048 170.428 26.024C169.884 26.984 169.124 27.744 168.148 28.304C167.172 28.848 166.068 29.12 164.836 29.12ZM164.836 27.608C165.748 27.608 166.556 27.408 167.26 27.008C167.964 26.592 168.516 26.016 168.916 25.28C169.332 24.528 169.54 23.664 169.54 22.688C169.54 21.696 169.332 20.832 168.916 20.096C168.516 19.36 167.964 18.792 167.26 18.392C166.556 17.976 165.756 17.768 164.86 17.768C163.964 17.768 163.164 17.976 162.46 18.392C161.756 18.792 161.196 19.36 160.78 20.096C160.364 20.832 160.156 21.696 160.156 22.688C160.156 23.664 160.364 24.528 160.78 25.28C161.196 26.016 161.756 26.592 162.46 27.008C163.164 27.408 163.956 27.608 164.836 27.608ZM174.747 29V16.4H176.379V19.832L176.211 19.232C176.563 18.272 177.155 17.544 177.987 17.048C178.819 16.536 179.851 16.28 181.083 16.28V17.936C181.019 17.936 180.955 17.936 180.891 17.936C180.827 17.92 180.763 17.912 180.699 17.912C179.371 17.912 178.331 18.32 177.579 19.136C176.827 19.936 176.451 21.08 176.451 22.568V29H174.747ZM189.211 29.12C187.995 29.12 186.899 28.848 185.923 28.304C184.963 27.744 184.203 26.984 183.643 26.024C183.083 25.048 182.803 23.936 182.803 22.688C182.803 21.424 183.083 20.312 183.643 19.352C184.203 18.392 184.963 17.64 185.923 17.096C186.883 16.552 187.979 16.28 189.211 16.28C190.459 16.28 191.563 16.552 192.523 17.096C193.499 17.64 194.259 18.392 194.803 19.352C195.363 20.312 195.643 21.424 195.643 22.688C195.643 23.936 195.363 25.048 194.803 26.024C194.259 26.984 193.499 27.744 192.523 28.304C191.547 28.848 190.443 29.12 189.211 29.12ZM189.211 27.608C190.123 27.608 190.931 27.408 191.635 27.008C192.339 26.592 192.891 26.016 193.291 25.28C193.707 24.528 193.915 23.664 193.915 22.688C193.915 21.696 193.707 20.832 193.291 20.096C192.891 19.36 192.339 18.792 191.635 18.392C190.931 17.976 190.131 17.768 189.235 17.768C188.339 17.768 187.539 17.976 186.835 18.392C186.131 18.792 185.571 19.36 185.155 20.096C184.739 20.832 184.531 21.696 184.531 22.688C184.531 23.664 184.739 24.528 185.155 25.28C185.571 26.016 186.131 26.592 186.835 27.008C187.539 27.408 188.331 27.608 189.211 27.608ZM202.506 29.12C201.466 29.12 200.482 28.976 199.554 28.688C198.626 28.384 197.898 28.008 197.37 27.56L198.138 26.216C198.65 26.6 199.306 26.936 200.106 27.224C200.906 27.496 201.746 27.632 202.626 27.632C203.826 27.632 204.69 27.448 205.218 27.08C205.746 26.696 206.01 26.192 206.01 25.568C206.01 25.104 205.858 24.744 205.554 24.488C205.266 24.216 204.882 24.016 204.402 23.888C203.922 23.744 203.386 23.624 202.794 23.528C202.202 23.432 201.61 23.32 201.018 23.192C200.442 23.064 199.914 22.88 199.434 22.64C198.954 22.384 198.562 22.04 198.258 21.608C197.97 21.176 197.826 20.6 197.826 19.88C197.826 19.192 198.018 18.576 198.402 18.032C198.786 17.488 199.346 17.064 200.082 16.76C200.834 16.44 201.746 16.28 202.818 16.28C203.634 16.28 204.45 16.392 205.266 16.616C206.082 16.824 206.754 17.104 207.282 17.456L206.538 18.824C205.978 18.44 205.378 18.168 204.738 18.008C204.098 17.832 203.458 17.744 202.818 17.744C201.682 17.744 200.842 17.944 200.298 18.344C199.77 18.728 199.506 19.224 199.506 19.832C199.506 20.312 199.65 20.688 199.938 20.96C200.242 21.232 200.634 21.448 201.114 21.608C201.61 21.752 202.146 21.872 202.722 21.968C203.314 22.064 203.898 22.184 204.474 22.328C205.066 22.456 205.602 22.64 206.082 22.88C206.578 23.104 206.97 23.432 207.258 23.864C207.562 24.28 207.714 24.832 207.714 25.52C207.714 26.256 207.506 26.896 207.09 27.44C206.69 27.968 206.098 28.384 205.314 28.688C204.546 28.976 203.61 29.12 202.506 29.12ZM217.273 16.28C218.297 16.28 219.193 16.48 219.961 16.88C220.745 17.264 221.353 17.856 221.785 18.656C222.233 19.456 222.457 20.464 222.457 21.68V29H220.753V21.848C220.753 20.52 220.417 19.52 219.745 18.848C219.089 18.16 218.161 17.816 216.961 17.816C216.065 17.816 215.281 18 214.609 18.368C213.953 18.72 213.441 19.24 213.073 19.928C212.721 20.6 212.545 21.416 212.545 22.376V29H210.841V11.192H212.545V19.856L212.209 19.208C212.609 18.296 213.249 17.584 214.129 17.072C215.009 16.544 216.057 16.28 217.273 16.28ZM232.412 29.12C231.1 29.12 229.948 28.848 228.956 28.304C227.964 27.744 227.188 26.984 226.628 26.024C226.068 25.048 225.788 23.936 225.788 22.688C225.788 21.44 226.052 20.336 226.58 19.376C227.124 18.416 227.86 17.664 228.788 17.12C229.732 16.56 230.788 16.28 231.956 16.28C233.14 16.28 234.188 16.552 235.1 17.096C236.028 17.624 236.756 18.376 237.284 19.352C237.812 20.312 238.076 21.424 238.076 22.688C238.076 22.768 238.068 22.856 238.052 22.952C238.052 23.032 238.052 23.12 238.052 23.216H227.084V21.944H237.14L236.468 22.448C236.468 21.536 236.268 20.728 235.868 20.024C235.484 19.304 234.956 18.744 234.284 18.344C233.612 17.944 232.836 17.744 231.956 17.744C231.092 17.744 230.316 17.944 229.628 18.344C228.94 18.744 228.404 19.304 228.02 20.024C227.636 20.744 227.444 21.568 227.444 22.496V22.76C227.444 23.72 227.652 24.568 228.068 25.304C228.5 26.024 229.092 26.592 229.844 27.008C230.612 27.408 231.484 27.608 232.46 27.608C233.228 27.608 233.94 27.472 234.596 27.2C235.268 26.928 235.844 26.512 236.324 25.952L237.284 27.056C236.724 27.728 236.02 28.24 235.172 28.592C234.34 28.944 233.42 29.12 232.412 29.12ZM247.976 16.28C249 16.28 249.896 16.48 250.664 16.88C251.448 17.264 252.056 17.856 252.488 18.656C252.936 19.456 253.16 20.464 253.16 21.68V29H251.456V21.848C251.456 20.52 251.12 19.52 250.448 18.848C249.792 18.16 248.864 17.816 247.664 17.816C246.768 17.816 245.984 18 245.312 18.368C244.656 18.72 244.144 19.24 243.776 19.928C243.424 20.6 243.248 21.416 243.248 22.376V29H241.544V16.4H243.176V19.856L242.912 19.208C243.312 18.296 243.952 17.584 244.832 17.072C245.712 16.544 246.76 16.28 247.976 16.28ZM259.107 25.736L259.155 23.552L267.003 16.4H269.091L263.547 21.704L262.587 22.52L259.107 25.736ZM257.763 29V11.192H259.467V29H257.763ZM267.531 29L262.275 22.448L263.379 21.128L269.619 29H267.531ZM276.797 29.12C275.581 29.12 274.485 28.848 273.509 28.304C272.549 27.744 271.789 26.984 271.229 26.024C270.669 25.048 270.389 23.936 270.389 22.688C270.389 21.424 270.669 20.312 271.229 19.352C271.789 18.392 272.549 17.64 273.509 17.096C274.469 16.552 275.565 16.28 276.797 16.28C278.045 16.28 279.149 16.552 280.109 17.096C281.085 17.64 281.845 18.392 282.389 19.352C282.949 20.312 283.229 21.424 283.229 22.688C283.229 23.936 282.949 25.048 282.389 26.024C281.845 26.984 281.085 27.744 280.109 28.304C279.133 28.848 278.029 29.12 276.797 29.12ZM276.797 27.608C277.709 27.608 278.517 27.408 279.221 27.008C279.925 26.592 280.477 26.016 280.877 25.28C281.293 24.528 281.501 23.664 281.501 22.688C281.501 21.696 281.293 20.832 280.877 20.096C280.477 19.36 279.925 18.792 279.221 18.392C278.517 17.976 277.717 17.768 276.821 17.768C275.925 17.768 275.125 17.976 274.421 18.392C273.717 18.792 273.157 19.36 272.741 20.096C272.325 20.832 272.117 21.696 272.117 22.688C272.117 23.664 272.325 24.528 272.741 25.28C273.157 26.016 273.717 26.592 274.421 27.008C275.125 27.408 275.917 27.608 276.797 27.608ZM285.324 32.504L286.38 28.064L286.572 29.096C286.204 29.096 285.892 28.976 285.636 28.736C285.396 28.496 285.276 28.184 285.276 27.8C285.276 27.416 285.396 27.104 285.636 26.864C285.892 26.624 286.196 26.504 286.548 26.504C286.916 26.504 287.212 26.632 287.436 26.888C287.676 27.144 287.796 27.448 287.796 27.8C287.796 27.928 287.788 28.056 287.772 28.184C287.756 28.312 287.724 28.456 287.676 28.616C287.628 28.776 287.564 28.968 287.484 29.192L286.476 32.504H285.324ZM296.308 24.584V23.336L305.212 12.2H307.132L298.3 23.336L297.364 23.048H310.876V24.584H296.308ZM305.788 29V24.584L305.836 23.048V19.16H307.516V29H305.788ZM312.175 24.584V23.336L321.079 12.2H322.999L314.167 23.336L313.231 23.048H326.743V24.584H312.175ZM321.655 29V24.584L321.703 23.048V19.16H323.383V29H321.655ZM337.083 25.736L337.131 23.552L344.979 16.4H347.067L341.523 21.704L340.563 22.52L337.083 25.736ZM335.739 29V11.192H337.443V29H335.739ZM345.507 29L340.251 22.448L341.355 21.128L347.595 29H345.507Z" fill="#F7FBFB"/>
</svg>
