<svg width="34" height="22" viewBox="0 0 34 22" fill="none" xmlns="http://www.w3.org/2000/svg">
<path d="M17 0.666687C7.79998 0.666687 0.333313 4.40002 0.333313 9.00002C0.333313 12.7334 5.23331 15.8834 12 16.95V20.3167C12 21.0667 12.9 21.4334 13.4166 20.9L18.0666 16.25C18.4 15.9167 18.4 15.4 18.0666 15.0667L13.4166 10.4167C13.2992 10.3015 13.1502 10.2237 12.9886 10.193C12.8269 10.1624 12.6598 10.1803 12.5083 10.2444C12.3568 10.3086 12.2277 10.4162 12.1372 10.5536C12.0468 10.691 11.999 10.8522 12 11.0167V13.55C6.74998 12.6167 3.66665 10.3834 3.66665 9.00002C3.66665 7.23335 8.73331 4.00002 17 4.00002C25.2666 4.00002 30.3333 7.23335 30.3333 9.00002C30.3333 10.1 28.3333 11.8 24.8 12.9C24.1166 13.1167 23.6666 13.75 23.6666 14.4667C23.6666 15.5834 24.75 16.4 25.8 16.0667C30.5166 14.6 33.6666 11.9834 33.6666 9.00002C33.6666 4.40002 26.2 0.666687 17 0.666687Z" fill="#5B86A1"/>
</svg>
