<svg width="34" height="34" viewBox="0 0 34 34" fill="none" xmlns="http://www.w3.org/2000/svg">
<path d="M16.99 0.333374C13.6937 0.333374 10.4713 1.31086 7.7305 3.14221C4.98968 4.97357 2.85348 7.57655 1.59202 10.622C0.330555 13.6674 0.000499576 17.0185 0.643587 20.2515C1.28667 23.4846 2.87402 26.4543 5.2049 28.7852C7.53577 31.116 10.5055 32.7034 13.7385 33.3465C16.9715 33.9896 20.3226 33.6595 23.3681 32.398C26.4135 31.1366 29.0165 29.0004 30.8478 26.2595C32.6792 23.5187 33.6567 20.2964 33.6567 17C33.6567 14.8113 33.2256 12.6441 32.388 10.622C31.5504 8.59989 30.3228 6.76257 28.7751 5.21493C27.2275 3.66728 25.3902 2.43963 23.3681 1.60205C21.346 0.76447 19.1787 0.333374 16.99 0.333374ZM22.29 25.5867C22.2278 25.7424 22.133 25.883 22.012 25.999C21.8909 26.1151 21.7465 26.2039 21.5883 26.2594C21.4301 26.315 21.2618 26.3361 21.0948 26.3212C20.9278 26.3064 20.7659 26.256 20.62 26.1734L16.095 22.6567L13.1917 25.3367C13.1243 25.3865 13.0455 25.4185 12.9625 25.4299C12.8795 25.4412 12.795 25.4315 12.7167 25.4017L13.2733 20.42L13.29 20.435L13.3017 20.3367C13.3017 20.3367 21.4433 12.9234 21.775 12.6084C22.1117 12.2934 22 12.225 22 12.225C22.02 11.8417 21.3983 12.225 21.3983 12.225L10.61 19.165L6.11834 17.635C6.11834 17.635 5.42834 17.3884 5.36334 16.8434C5.29501 16.3034 6.14001 16.01 6.14001 16.01L24.0017 8.91337C24.0017 8.91337 25.47 8.26004 25.47 9.34337L22.29 25.5867Z" fill="#F7FBFB"/>
</svg>
